<svg width="632" height="319" viewBox="0 0 6325 3191" fill="none" xmlns="http://www.w3.org/2000/svg">
<g clip-path="url(#clip0_1168_29)">
<path d="M6325 0H0V3191H6325V0Z" fill="#353535"/>
<path d="M5025.59 2684H1110L0 3133H3130.46L6362 3126.25L5025.59 2684Z" fill="#292929"/>
<path d="M4966.32 410H985.492L-143 0H3039.62L6325 6.16415L4966.32 410Z" fill="#292929"/>
<line x1="5555.5" y1="2678" x2="5555.5" y2="2926" stroke="black"/>
<path d="M963 2241.5C963 2263.87 943.301 2282 919 2282C894.699 2282 875 2263.87 875 2241.5C875 2219.13 894.699 2201 919 2201C943.301 2201 963 2219.13 963 2241.5Z" fill="#A4A4A4"/>
<path d="M963 2241.5C963 2263.87 943.301 2282 919 2282C894.699 2282 875 2263.87 875 2241.5C875 2219.13 894.699 2201 919 2201C943.301 2201 963 2219.13 963 2241.5Z" fill="#A4A4A4"/>
<path d="M963 2241.5C963 2263.87 943.301 2282 919 2282C894.699 2282 875 2263.87 875 2241.5C875 2219.13 894.699 2201 919 2201C943.301 2201 963 2219.13 963 2241.5Z" fill="#A4A4A4"/>
<path d="M963 2241.5C963 2263.87 943.301 2282 919 2282C894.699 2282 875 2263.87 875 2241.5C875 2219.13 894.699 2201 919 2201C943.301 2201 963 2219.13 963 2241.5Z" fill="#A4A4A4"/>
<path d="M1570 1700.5C1570 1741.09 1287.72 1774 939.5 1774C591.284 1774 309 1741.09 309 1700.5C309 1659.91 591.284 1627 939.5 1627C1287.72 1627 1570 1659.91 1570 1700.5Z" fill="#A4A4A4"/>
<path d="M1570 1700.5C1570 1741.09 1287.72 1774 939.5 1774C591.284 1774 309 1741.09 309 1700.5C309 1659.91 591.284 1627 939.5 1627C1287.72 1627 1570 1659.91 1570 1700.5Z" fill="#A4A4A4"/>
<path d="M1570 1700.5C1570 1741.09 1287.72 1774 939.5 1774C591.284 1774 309 1741.09 309 1700.5C309 1659.91 591.284 1627 939.5 1627C1287.72 1627 1570 1659.91 1570 1700.5Z" fill="#A4A4A4"/>
<path d="M1570 1700.5C1570 1741.09 1287.72 1774 939.5 1774C591.284 1774 309 1741.09 309 1700.5C309 1659.91 591.284 1627 939.5 1627C1287.72 1627 1570 1659.91 1570 1700.5Z" fill="#A4A4A4"/>
<path d="M1336 1930C1336 1956.51 1153.33 1978 928 1978C702.668 1978 520 1956.51 520 1930C520 1903.49 702.668 1882 928 1882C1153.33 1882 1336 1903.49 1336 1930Z" fill="#A4A4A4"/>
<path d="M1336 1930C1336 1956.51 1153.33 1978 928 1978C702.668 1978 520 1956.51 520 1930C520 1903.49 702.668 1882 928 1882C1153.33 1882 1336 1903.49 1336 1930Z" fill="#A4A4A4"/>
<path d="M1336 1930C1336 1956.51 1153.33 1978 928 1978C702.668 1978 520 1956.51 520 1930C520 1903.49 702.668 1882 928 1882C1153.33 1882 1336 1903.49 1336 1930Z" fill="#A4A4A4"/>
<path d="M1336 1930C1336 1956.51 1153.33 1978 928 1978C702.668 1978 520 1956.51 520 1930C520 1903.49 702.668 1882 928 1882C1153.33 1882 1336 1903.49 1336 1930Z" fill="#A4A4A4"/>
<path d="M1191 2097C1191 2107.49 1069.89 2116 920.5 2116C771.107 2116 650 2107.49 650 2097C650 2086.51 771.107 2078 920.5 2078C1069.89 2078 1191 2086.51 1191 2097Z" fill="#A4A4A4"/>
<path d="M1191 2097C1191 2107.49 1069.89 2116 920.5 2116C771.107 2116 650 2107.49 650 2097C650 2086.51 771.107 2078 920.5 2078C1069.89 2078 1191 2086.51 1191 2097Z" fill="#A4A4A4"/>
<path d="M1191 2097C1191 2107.49 1069.89 2116 920.5 2116C771.107 2116 650 2107.49 650 2097C650 2086.51 771.107 2078 920.5 2078C1069.89 2078 1191 2086.51 1191 2097Z" fill="#A4A4A4"/>
<path d="M1191 2097C1191 2107.49 1069.89 2116 920.5 2116C771.107 2116 650 2107.49 650 2097C650 2086.51 771.107 2078 920.5 2078C1069.89 2078 1191 2086.51 1191 2097Z" fill="#A4A4A4"/>
</g>
<defs>
<clipPath id="clip0_1168_29">
<rect width="6325" height="3191" fill="white"/>
</clipPath>
</defs>
</svg>
