<svg width="1920" height="1080" viewBox="0 0 5374 3023" fill="none" xmlns="http://www.w3.org/2000/svg">
<path d="M0.5 0.5H5373.5V3022.5H0.5V0.5Z" fill="black" stroke="black"/>
<line x1="3280" y1="981.5" x2="2797" y2="981.5" stroke="black"/>
<path d="M1812.19 1584.79C1812.19 1544.38 1818.41 1508.64 1830.84 1477.56C1843.79 1446.48 1861.14 1420.58 1882.9 1399.86C1905.17 1378.62 1931.07 1362.57 1960.6 1351.69C1990.64 1340.81 2023.02 1335.37 2057.73 1335.37C2092.43 1335.37 2124.55 1340.81 2154.07 1351.69C2184.12 1362.57 2210.28 1378.62 2232.55 1399.86C2254.82 1420.58 2272.18 1446.48 2284.61 1477.56C2297.56 1508.64 2284.61 1703.24 2284.61 1743.64C2284.61 1784.05 2702.61 1581.25 2702.61 1581.25C2702.61 1581.25 2289.27 1739.15 2267 1760.39C2245.24 1781.11 2185.67 1807.79 2155.63 1818.67C2125.58 1829.54 2092.95 1834.98 2057.73 1834.98C2022.5 1834.98 1989.87 1829.54 1959.82 1818.67C1929.78 1807.27 1903.88 1790.95 1882.12 1769.71C1860.37 1748.48 1843.27 1722.32 1830.84 1691.24C1818.41 1660.16 1812.19 1624.67 1812.19 1584.79ZM1952.05 1584.79C1952.05 1631.93 1961.64 1667.15 1980.8 1690.46C1999.97 1713.77 2025.61 1725.43 2057.73 1725.43C2090.36 1725.43 2116.26 1713.77 2135.43 1690.46C2154.59 1667.15 2164.17 1631.93 2164.17 1584.79C2164.17 1538.17 2154.59 1503.2 2135.43 1479.89C2116.78 1456.58 2091.14 1444.93 2058.5 1444.93C2026.39 1444.93 1882.68 1428.19 1863 1451.5C1843.83 1474.29 1952.05 1537.65 1952.05 1584.79Z" fill="#6E9454"/>
<path d="M2521.57 1627.1C2498.78 1619.33 2478.06 1611.56 2459.41 1603.79C2440.76 1595.5 2424.7 1585.66 2411.23 1574.26C2397.77 1562.86 2387.15 1549.4 2379.38 1533.86C2372.13 1517.8 2357 1365.78 2495.5 1340.04C2495.5 1296.01 1854.23 1452.7 1887.9 1426.28C1922.09 1399.87 1920 1223.78 2561.97 1330.28C2584.25 1330.28 3470.33 1326.05 3489.5 1329.16C3508.67 1332.27 2659.62 1342.97 2673.08 1349.71C2687.07 1355.92 2697.95 1364.21 2705.72 1374.57C2705.72 1374.57 2713.5 1384.5 2715.5 1407.63C2715.5 1407.63 2680 1353.08 2525.45 1451.49C2514.58 1457.71 2509.14 1465.74 2509.14 1475.58C2509.14 1483.35 2695.88 1576.07 2702.61 1581.25C2181.11 1538.75 2709.34 1585.91 2702.61 1581.25C2702.61 1581.25 2742.24 1637.71 2742.24 1679.15C2742.24 1723.18 2684.71 1762.83 2650 1790.28C2684 1763.39 2604.45 1826.78 2537.11 1826.78C2513.28 1826.78 2491.01 1824.71 2470.29 1820.57C2450.08 1816.94 2432.21 1811.5 2416.67 1804.25C2401.65 1796.48 2389.74 1787.16 2380.93 1776.28C2372.64 1764.88 2368.5 1751.93 2368.5 1737.43C2368.5 1722.41 2567.5 1717.66 2567.5 1717.66C2592.88 1717.66 2593 1717.66 2593 1717.66C2603.36 1709.89 2601.6 1687.96 2601.6 1677.6C2601.6 1667.24 2597.46 1659.47 2589.17 1654.29C2580.88 1648.59 2521.57 1627.1 2521.57 1627.1Z" fill="#84AD69"/>
<path d="M3227.04 1646.95C3227.04 1674.92 3222.12 1700.56 3212.27 1723.87C3202.95 1746.66 3189.22 1766.35 3171.09 1782.92C3152.96 1798.98 3130.95 1811.41 3105.05 1820.22C3079.15 1829.03 3049.88 1833.43 3017.25 1833.43C2984.61 1833.43 2955.35 1829.03 2929.45 1820.22C2903.55 1811.41 2881.53 1798.98 2863.4 1782.92C2845.27 1766.35 2831.29 1746.66 2821.44 1723.87C2812.12 1700.56 2807.46 1674.92 2807.46 1646.95V1350.13C2813.16 1349.1 2822.22 1347.8 2834.65 1346.25C2847.08 1344.18 2859 1343.14 2870.39 1343.14C2882.31 1343.14 2892.67 1344.18 2901.47 1346.25C2910.8 1347.8 2918.57 1350.91 2924.78 1355.57C2931 1360.23 2935.66 1366.71 2938.77 1375C2941.88 1383.29 2943.43 1394.16 2943.43 1407.63V1644.62C2943.43 1669.48 2950.17 1688.91 2963.63 1702.89C2977.62 1716.88 2995.49 1723.87 3017.25 1723.87C3039.52 1723.87 3057.39 1716.88 3070.86 1702.89C3084.33 1688.91 3091.06 1669.48 3091.06 1644.62V1350.13C3096.76 1349.1 3105.83 1347.8 3118.26 1346.25C3130.69 1344.18 3142.6 1343.14 3154 1343.14C3165.91 1343.14 3176.27 1344.18 3185.08 1346.25C3194.4 1347.8 3202.17 1350.91 3208.39 1355.57C3214.61 1360.23 3219.27 1366.71 3222.38 1375C3225.48 1383.29 3227.04 1394.16 3227.04 1407.63V1646.95Z" fill="#862CFF"/>
<path d="M3461.74 1817.89C3456.04 1819.44 3446.98 1821 3434.55 1822.55C3422.63 1824.1 3410.72 1824.88 3398.8 1824.88C3386.89 1824.88 3376.27 1823.85 3366.95 1821.77C3358.14 1820.22 3350.63 1817.11 3344.41 1812.45C3338.2 1807.79 3333.54 1801.31 3330.43 1793.02C3327.32 1784.74 3325.77 1773.86 3325.77 1760.39V1350.13C2799.29 1350.13 3340.53 1347.8 3352.96 1346.25C3365.39 1344.18 3387.41 1812.45 3398.8 1812.45C3410.72 1812.45 3410.98 1344.18 3419.78 1346.25C3413.57 1341.59 3429.11 1347.8 3419.78 1346.25C3452.42 1351.69 3453.97 1366.71 3457.08 1375C3460.19 1383.29 3461.74 1394.16 3461.74 1407.63V1817.89Z" fill="#870FFF"/>
</svg>
