<svg width="1920" height="1080" viewBox="0 0 6325 3191" fill="none" xmlns="http://www.w3.org/2000/svg">
    <g clip-path="url(#clip0_1278_90)">
        <path d="M6325 0H0V3191H6325V0Z" fill="#353535" />
        <path d="M6325 0H0V3191H6325V0Z" fill="#353535" />
        <path d="M5025.59 2684H1110L0 3133H3130.46L6362 3126.25L5025.59 2684Z" fill="#292929" />
        <path d="M4966.32 410H985.492L-143 0H3039.62L6325 6.16415L4966.32 410Z" fill="#292929" />
        <line x1="5555.5" y1="2678" x2="5555.5" y2="2926" stroke="black" />
        <path
            d="M4917.9 744.4C4908.63 744.4 4901.3 741.733 4895.9 736.4C4890.5 731.067 4887.8 723.567 4887.8 713.9C4887.8 707.9 4888.8 702.367 4890.8 697.3C4892.87 692.167 4895.7 687.7 4899.3 683.9C4902.97 680.1 4907.27 677.167 4912.2 675.1C4917.2 672.967 4922.6 671.9 4928.4 671.9C4931.8 671.9 4934.8 672.167 4937.4 672.7C4940.07 673.233 4942.4 673.8 4944.4 674.4C4946.47 674.933 4948.23 675.2 4949.7 675.2C4950.1 675.2 4950.57 675.167 4951.1 675.1C4951.63 675.033 4952.07 674.967 4952.4 674.9C4952 677.767 4951.6 680.767 4951.2 683.9C4950.87 686.967 4950.53 690.2 4950.2 693.6C4949.6 693.667 4949 693.733 4948.4 693.8C4947.87 693.8 4947.3 693.8 4946.7 693.8C4946.37 687.933 4944.8 683.5 4942 680.5C4939.2 677.5 4934.93 676 4929.2 676C4924.87 676 4921.07 676.867 4917.8 678.6C4914.53 680.267 4911.73 682.533 4909.4 685.4C4907.13 688.267 4905.27 691.5 4903.8 695.1C4902.4 698.633 4901.37 702.267 4900.7 706C4900.1 709.733 4899.8 713.3 4899.8 716.7C4899.8 723.833 4901.27 729.567 4904.2 733.9C4907.2 738.167 4911.97 740.3 4918.5 740.3C4923.7 740.3 4928.4 738.833 4932.6 735.9C4936.87 732.967 4940.1 728.467 4942.3 722.4C4942.83 722.4 4943.43 722.4 4944.1 722.4C4944.83 722.4 4945.47 722.433 4946 722.5C4945.13 725.367 4944.37 728.267 4943.7 731.2C4943.03 734.133 4942.43 737.133 4941.9 740.2C4937.83 741.333 4933.77 742.3 4929.7 743.1C4925.7 743.967 4921.77 744.4 4917.9 744.4ZM5001.11 714.6C5001.11 718 5000.54 721.433 4999.41 724.9C4998.34 728.367 4996.71 731.567 4994.51 734.5C4992.31 737.367 4989.58 739.7 4986.31 741.5C4983.04 743.3 4979.28 744.2 4975.01 744.2C4971.41 744.2 4968.38 743.567 4965.91 742.3C4963.51 741.033 4961.58 739.4 4960.11 737.4C4958.64 735.4 4957.58 733.233 4956.91 730.9C4956.31 728.5 4956.01 726.2 4956.01 724C4956.01 721.133 4956.51 718.033 4957.51 714.7C4958.58 711.367 4960.18 708.2 4962.31 705.2C4964.44 702.2 4967.18 699.767 4970.51 697.9C4973.84 695.967 4977.81 695 4982.41 695C4986.74 695 4990.28 695.9 4993.01 697.7C4995.81 699.433 4997.84 701.8 4999.11 704.8C5000.44 707.733 5001.11 711 5001.11 714.6ZM4990.51 713C4990.51 708.867 4989.84 705.467 4988.51 702.8C4987.24 700.067 4985.08 698.7 4982.01 698.7C4979.61 698.7 4977.44 699.5 4975.51 701.1C4973.64 702.7 4972.04 704.833 4970.71 707.5C4969.38 710.167 4968.34 713.1 4967.61 716.3C4966.94 719.433 4966.61 722.6 4966.61 725.8C4966.61 729.933 4967.28 733.433 4968.61 736.3C4970.01 739.1 4972.28 740.5 4975.41 740.5C4977.88 740.5 4980.04 739.667 4981.91 738C4983.78 736.333 4985.34 734.133 4986.61 731.4C4987.88 728.667 4988.84 725.7 4989.51 722.5C4990.18 719.233 4990.51 716.067 4990.51 713ZM5053.84 714.6C5053.84 718 5053.28 721.433 5052.14 724.9C5051.08 728.367 5049.44 731.567 5047.24 734.5C5045.04 737.367 5042.31 739.7 5039.04 741.5C5035.78 743.3 5032.01 744.2 5027.74 744.2C5024.14 744.2 5021.11 743.567 5018.64 742.3C5016.24 741.033 5014.31 739.4 5012.84 737.4C5011.38 735.4 5010.31 733.233 5009.64 730.9C5009.04 728.5 5008.74 726.2 5008.74 724C5008.74 721.133 5009.24 718.033 5010.24 714.7C5011.31 711.367 5012.91 708.2 5015.04 705.2C5017.18 702.2 5019.91 699.767 5023.24 697.9C5026.58 695.967 5030.54 695 5035.14 695C5039.48 695 5043.01 695.9 5045.74 697.7C5048.54 699.433 5050.58 701.8 5051.84 704.8C5053.18 707.733 5053.84 711 5053.84 714.6ZM5043.24 713C5043.24 708.867 5042.58 705.467 5041.24 702.8C5039.98 700.067 5037.81 698.7 5034.74 698.7C5032.34 698.7 5030.18 699.5 5028.24 701.1C5026.38 702.7 5024.78 704.833 5023.44 707.5C5022.11 710.167 5021.08 713.1 5020.34 716.3C5019.68 719.433 5019.34 722.6 5019.34 725.8C5019.34 729.933 5020.01 733.433 5021.34 736.3C5022.74 739.1 5025.01 740.5 5028.14 740.5C5030.61 740.5 5032.78 739.667 5034.64 738C5036.51 736.333 5038.08 734.133 5039.34 731.4C5040.61 728.667 5041.58 725.7 5042.24 722.5C5042.91 719.233 5043.24 716.067 5043.24 713ZM5071.48 743H5061.68L5074.28 681.3C5074.48 680.367 5074.65 679.5 5074.78 678.7C5074.91 677.9 5074.98 677.267 5074.98 676.8C5074.98 675.533 5074.38 674.767 5073.18 674.5C5072.05 674.167 5069.88 673.967 5066.68 673.9C5066.61 673.633 5066.55 673.367 5066.48 673.1C5066.48 672.767 5066.48 672.467 5066.48 672.2C5066.48 671.8 5066.51 671.467 5066.58 671.2C5070.18 670.933 5073.68 670.567 5077.08 670.1C5080.55 669.567 5083.51 668.8 5085.98 667.8L5087.28 668.5C5086.48 671.367 5085.71 674.333 5084.98 677.4C5084.31 680.467 5083.68 683.5 5083.08 686.5L5079.98 701.5L5078.08 709.3H5078.58C5081.85 704.633 5085.25 701.1 5088.78 698.7C5092.31 696.233 5095.95 695 5099.68 695C5102.81 695 5105.01 695.767 5106.28 697.3C5107.55 698.833 5108.18 700.567 5108.18 702.5C5108.18 705.633 5106.65 708.567 5103.58 711.3C5100.51 714.033 5095.55 716.767 5088.68 719.5C5090.15 723.7 5091.38 727 5092.38 729.4C5093.38 731.8 5094.18 733.567 5094.78 734.7C5095.45 735.833 5095.98 736.567 5096.38 736.9C5096.85 737.167 5097.28 737.3 5097.68 737.3C5098.88 737.3 5100.21 736.8 5101.68 735.8C5103.15 734.733 5104.58 733.367 5105.98 731.7C5106.85 732.3 5107.61 732.967 5108.28 733.7C5105.81 737.033 5103.21 739.633 5100.48 741.5C5097.81 743.3 5095.31 744.2 5092.98 744.2C5091.11 744.2 5089.51 743.533 5088.18 742.2C5086.85 740.8 5085.48 738.333 5084.08 734.8C5082.68 731.267 5080.88 726.267 5078.68 719.8C5084.28 717.867 5088.48 715.967 5091.28 714.1C5094.15 712.167 5096.05 710.367 5096.98 708.7C5097.98 707.033 5098.48 705.567 5098.48 704.3C5098.48 703.367 5098.25 702.6 5097.78 702C5097.31 701.4 5096.51 701.1 5095.38 701.1C5093.85 701.1 5092.08 701.7 5090.08 702.9C5088.08 704.033 5086.08 705.6 5084.08 707.6C5082.15 709.533 5080.41 711.8 5078.88 714.4C5077.41 716.933 5076.38 719.567 5075.78 722.3L5075.68 722.7L5071.48 743ZM5136.73 731.7C5137.6 732.3 5138.37 732.967 5139.03 733.7C5136.77 736.7 5134.3 739.2 5131.63 741.2C5129.03 743.2 5126.13 744.2 5122.93 744.2C5120.47 744.2 5118.67 743.6 5117.53 742.4C5116.4 741.133 5115.83 739.467 5115.83 737.4C5115.83 736.667 5115.9 735.9 5116.03 735.1C5116.17 734.233 5116.33 733.367 5116.53 732.5L5122.53 707.5C5123 705.567 5123.23 704.3 5123.23 703.7C5123.23 702.1 5122.63 701.3 5121.43 701.3C5120.5 701.3 5119.27 701.833 5117.73 702.9C5116.27 703.9 5114.8 705.167 5113.33 706.7C5112.87 706.367 5112.43 706.033 5112.03 705.7C5111.7 705.367 5111.37 705 5111.03 704.6C5113.7 701.467 5116.43 699.133 5119.23 697.6C5122.1 696 5124.77 695.2 5127.23 695.2C5129.5 695.2 5131.1 695.8 5132.03 697C5133.03 698.133 5133.53 699.567 5133.53 701.3C5133.53 701.9 5133.47 702.567 5133.33 703.3C5133.27 703.967 5133.17 704.667 5133.03 705.4L5126.63 732C5126.57 732.467 5126.43 733.067 5126.23 733.8C5126.03 734.467 5125.93 735.133 5125.93 735.8C5125.93 736.4 5126.07 736.9 5126.33 737.3C5126.6 737.7 5127.07 737.9 5127.73 737.9C5128.87 737.9 5130.3 737.3 5132.03 736.1C5133.77 734.9 5135.33 733.433 5136.73 731.7ZM5132.13 683.6C5130.33 683.6 5128.87 683 5127.73 681.8C5126.6 680.6 5126.03 679.133 5126.03 677.4C5126.03 675.4 5126.73 673.7 5128.13 672.3C5129.6 670.833 5131.33 670.1 5133.33 670.1C5135.13 670.1 5136.57 670.7 5137.63 671.9C5138.7 673.033 5139.23 674.467 5139.23 676.2C5139.23 678.2 5138.57 679.933 5137.23 681.4C5135.9 682.867 5134.2 683.6 5132.13 683.6ZM5159.3 724.8L5155.1 743H5145.1L5153.3 707.5C5153.77 705.567 5154 704.3 5154 703.7C5154 702.1 5153.4 701.3 5152.2 701.3C5151.27 701.3 5150.04 701.833 5148.5 702.9C5147.04 703.9 5145.57 705.167 5144.1 706.7C5143.64 706.367 5143.2 706.033 5142.8 705.7C5142.47 705.367 5142.14 705 5141.8 704.6C5144.47 701.467 5147.2 699.133 5150 697.6C5152.87 696 5155.54 695.2 5158 695.2C5160.27 695.2 5161.87 695.767 5162.8 696.9C5163.74 698.033 5164.2 699.367 5164.2 700.9C5164.2 701.7 5164.07 702.667 5163.8 703.8C5163.6 704.867 5163.4 706 5163.2 707.2H5163.5C5166.04 703.133 5169 700.1 5172.4 698.1C5175.87 696.033 5179.2 695 5182.4 695C5185.6 695 5188.04 695.9 5189.7 697.7C5191.44 699.433 5192.3 701.567 5192.3 704.1C5192.3 705.5 5192.04 707.367 5191.5 709.7C5191.04 712.033 5190.44 714.533 5189.7 717.2C5188.97 719.867 5188.24 722.5 5187.5 725.1C5186.77 727.633 5186.14 729.9 5185.6 731.9C5185.14 733.833 5184.9 735.2 5184.9 736C5184.9 736.467 5185.04 736.9 5185.3 737.3C5185.57 737.7 5186.04 737.9 5186.7 737.9C5187.84 737.9 5189.27 737.3 5191 736.1C5192.74 734.9 5194.3 733.433 5195.7 731.7C5196.57 732.3 5197.34 732.967 5198 733.7C5195.74 736.7 5193.27 739.2 5190.6 741.2C5188 743.2 5185.1 744.2 5181.9 744.2C5179.44 744.2 5177.64 743.6 5176.5 742.4C5175.37 741.133 5174.8 739.567 5174.8 737.7C5174.8 736.367 5175.04 734.6 5175.5 732.4C5176.04 730.2 5176.67 727.8 5177.4 725.2C5178.14 722.6 5178.84 720.033 5179.5 717.5C5180.24 714.9 5180.84 712.533 5181.3 710.4C5181.84 708.267 5182.1 706.6 5182.1 705.4C5182.1 704.067 5181.8 702.967 5181.2 702.1C5180.6 701.233 5179.54 700.8 5178 700.8C5176.07 700.8 5173.9 701.633 5171.5 703.3C5169.1 704.967 5166.8 707.5 5164.6 710.9C5162.47 714.3 5160.77 718.667 5159.5 724L5159.3 724.8ZM5216.48 768.5C5213.41 768.5 5210.34 768.067 5207.28 767.2C5204.28 766.333 5201.78 764.967 5199.78 763.1C5197.78 761.3 5196.78 759 5196.78 756.2C5196.78 753.067 5197.98 750.433 5200.38 748.3C5202.84 746.167 5205.71 744.267 5208.98 742.6C5207.51 741.933 5206.31 741.1 5205.38 740.1C5204.51 739.033 5204.08 737.733 5204.08 736.2C5204.08 734.333 5204.81 732.6 5206.28 731C5207.74 729.4 5210.08 727.667 5213.28 725.8C5211.08 724.6 5209.31 722.967 5207.98 720.9C5206.64 718.833 5205.98 716.433 5205.98 713.7C5205.98 710.3 5206.98 707.2 5208.98 704.4C5211.04 701.533 5213.78 699.267 5217.18 697.6C5220.58 695.867 5224.31 695 5228.38 695C5234.31 695 5238.91 696.767 5242.18 700.3C5244.04 699.233 5245.44 698.033 5246.38 696.7C5245.11 695.367 5244.48 693.8 5244.48 692C5244.48 690.667 5244.88 689.533 5245.68 688.6C5246.54 687.6 5247.71 687.1 5249.18 687.1C5250.38 687.1 5251.41 687.5 5252.28 688.3C5253.21 689.033 5253.68 690.167 5253.68 691.7C5253.68 693.767 5252.78 695.667 5250.98 697.4C5249.24 699.133 5246.91 700.9 5243.98 702.7C5245.18 704.833 5245.78 707.233 5245.78 709.9C5245.78 713.367 5244.81 716.5 5242.88 719.3C5240.94 722.1 5238.34 724.333 5235.08 726C5231.81 727.6 5228.14 728.4 5224.08 728.4C5221.34 728.4 5218.81 728 5216.48 727.2C5215.14 728.067 5214.08 728.967 5213.28 729.9C5212.54 730.767 5212.18 731.6 5212.18 732.4C5212.18 733.667 5212.98 734.633 5214.58 735.3C5216.24 735.967 5218.34 736.5 5220.88 736.9C5223.41 737.3 5226.11 737.767 5228.98 738.3C5231.84 738.767 5234.54 739.467 5237.08 740.4C5239.61 741.267 5241.68 742.5 5243.28 744.1C5244.94 745.7 5245.78 747.833 5245.78 750.5C5245.78 753.367 5244.81 755.933 5242.88 758.2C5241.01 760.467 5238.58 762.333 5235.58 763.8C5232.58 765.333 5229.38 766.5 5225.98 767.3C5222.64 768.1 5219.48 768.5 5216.48 768.5ZM5212.78 743.9C5210.51 745.433 5208.78 747.067 5207.58 748.8C5206.38 750.6 5205.78 752.567 5205.78 754.7C5205.78 757.033 5206.44 758.933 5207.78 760.4C5209.11 761.867 5210.81 762.933 5212.88 763.6C5214.94 764.267 5217.08 764.6 5219.28 764.6C5221.88 764.6 5224.54 764.167 5227.28 763.3C5230.01 762.5 5232.31 761.3 5234.18 759.7C5236.04 758.167 5236.98 756.3 5236.98 754.1C5236.98 752.1 5236.18 750.567 5234.58 749.5C5233.04 748.433 5231.01 747.6 5228.48 747C5226.01 746.4 5223.38 745.9 5220.58 745.5C5217.84 745.1 5215.24 744.567 5212.78 743.9ZM5224.08 724.9C5226.21 724.9 5228.01 724.367 5229.48 723.3C5231.01 722.233 5232.24 720.867 5233.18 719.2C5234.11 717.533 5234.78 715.767 5235.18 713.9C5235.64 712.033 5235.88 710.3 5235.88 708.7C5235.88 707.233 5235.64 705.7 5235.18 704.1C5234.78 702.433 5233.98 701.033 5232.78 699.9C5231.58 698.767 5229.81 698.2 5227.48 698.2C5225.34 698.2 5223.51 698.733 5221.98 699.8C5220.51 700.867 5219.31 702.233 5218.38 703.9C5217.51 705.567 5216.88 707.333 5216.48 709.2C5216.08 711 5215.88 712.7 5215.88 714.3C5215.88 715.9 5216.11 717.533 5216.58 719.2C5217.04 720.8 5217.88 722.167 5219.08 723.3C5220.28 724.367 5221.94 724.9 5224.08 724.9Z"
            fill="white" />
        <path
            d="M4917.9 744.4C4908.63 744.4 4901.3 741.733 4895.9 736.4C4890.5 731.067 4887.8 723.567 4887.8 713.9C4887.8 707.9 4888.8 702.367 4890.8 697.3C4892.87 692.167 4895.7 687.7 4899.3 683.9C4902.97 680.1 4907.27 677.167 4912.2 675.1C4917.2 672.967 4922.6 671.9 4928.4 671.9C4931.8 671.9 4934.8 672.167 4937.4 672.7C4940.07 673.233 4942.4 673.8 4944.4 674.4C4946.47 674.933 4948.23 675.2 4949.7 675.2C4950.1 675.2 4950.57 675.167 4951.1 675.1C4951.63 675.033 4952.07 674.967 4952.4 674.9C4952 677.767 4951.6 680.767 4951.2 683.9C4950.87 686.967 4950.53 690.2 4950.2 693.6C4949.6 693.667 4949 693.733 4948.4 693.8C4947.87 693.8 4947.3 693.8 4946.7 693.8C4946.37 687.933 4944.8 683.5 4942 680.5C4939.2 677.5 4934.93 676 4929.2 676C4924.87 676 4921.07 676.867 4917.8 678.6C4914.53 680.267 4911.73 682.533 4909.4 685.4C4907.13 688.267 4905.27 691.5 4903.8 695.1C4902.4 698.633 4901.37 702.267 4900.7 706C4900.1 709.733 4899.8 713.3 4899.8 716.7C4899.8 723.833 4901.27 729.567 4904.2 733.9C4907.2 738.167 4911.97 740.3 4918.5 740.3C4923.7 740.3 4928.4 738.833 4932.6 735.9C4936.87 732.967 4940.1 728.467 4942.3 722.4C4942.83 722.4 4943.43 722.4 4944.1 722.4C4944.83 722.4 4945.47 722.433 4946 722.5C4945.13 725.367 4944.37 728.267 4943.7 731.2C4943.03 734.133 4942.43 737.133 4941.9 740.2C4937.83 741.333 4933.77 742.3 4929.7 743.1C4925.7 743.967 4921.77 744.4 4917.9 744.4ZM5001.11 714.6C5001.11 718 5000.54 721.433 4999.41 724.9C4998.34 728.367 4996.71 731.567 4994.51 734.5C4992.31 737.367 4989.58 739.7 4986.31 741.5C4983.04 743.3 4979.28 744.2 4975.01 744.2C4971.41 744.2 4968.38 743.567 4965.91 742.3C4963.51 741.033 4961.58 739.4 4960.11 737.4C4958.64 735.4 4957.58 733.233 4956.91 730.9C4956.31 728.5 4956.01 726.2 4956.01 724C4956.01 721.133 4956.51 718.033 4957.51 714.7C4958.58 711.367 4960.18 708.2 4962.31 705.2C4964.44 702.2 4967.18 699.767 4970.51 697.9C4973.84 695.967 4977.81 695 4982.41 695C4986.74 695 4990.28 695.9 4993.01 697.7C4995.81 699.433 4997.84 701.8 4999.11 704.8C5000.44 707.733 5001.11 711 5001.11 714.6ZM4990.51 713C4990.51 708.867 4989.84 705.467 4988.51 702.8C4987.24 700.067 4985.08 698.7 4982.01 698.7C4979.61 698.7 4977.44 699.5 4975.51 701.1C4973.64 702.7 4972.04 704.833 4970.71 707.5C4969.38 710.167 4968.34 713.1 4967.61 716.3C4966.94 719.433 4966.61 722.6 4966.61 725.8C4966.61 729.933 4967.28 733.433 4968.61 736.3C4970.01 739.1 4972.28 740.5 4975.41 740.5C4977.88 740.5 4980.04 739.667 4981.91 738C4983.78 736.333 4985.34 734.133 4986.61 731.4C4987.88 728.667 4988.84 725.7 4989.51 722.5C4990.18 719.233 4990.51 716.067 4990.51 713ZM5053.84 714.6C5053.84 718 5053.28 721.433 5052.14 724.9C5051.08 728.367 5049.44 731.567 5047.24 734.5C5045.04 737.367 5042.31 739.7 5039.04 741.5C5035.78 743.3 5032.01 744.2 5027.74 744.2C5024.14 744.2 5021.11 743.567 5018.64 742.3C5016.24 741.033 5014.31 739.4 5012.84 737.4C5011.38 735.4 5010.31 733.233 5009.64 730.9C5009.04 728.5 5008.74 726.2 5008.74 724C5008.74 721.133 5009.24 718.033 5010.24 714.7C5011.31 711.367 5012.91 708.2 5015.04 705.2C5017.18 702.2 5019.91 699.767 5023.24 697.9C5026.58 695.967 5030.54 695 5035.14 695C5039.48 695 5043.01 695.9 5045.74 697.7C5048.54 699.433 5050.58 701.8 5051.84 704.8C5053.18 707.733 5053.84 711 5053.84 714.6ZM5043.24 713C5043.24 708.867 5042.58 705.467 5041.24 702.8C5039.98 700.067 5037.81 698.7 5034.74 698.7C5032.34 698.7 5030.18 699.5 5028.24 701.1C5026.38 702.7 5024.78 704.833 5023.44 707.5C5022.11 710.167 5021.08 713.1 5020.34 716.3C5019.68 719.433 5019.34 722.6 5019.34 725.8C5019.34 729.933 5020.01 733.433 5021.34 736.3C5022.74 739.1 5025.01 740.5 5028.14 740.5C5030.61 740.5 5032.78 739.667 5034.64 738C5036.51 736.333 5038.08 734.133 5039.34 731.4C5040.61 728.667 5041.58 725.7 5042.24 722.5C5042.91 719.233 5043.24 716.067 5043.24 713ZM5071.48 743H5061.68L5074.28 681.3C5074.48 680.367 5074.65 679.5 5074.78 678.7C5074.91 677.9 5074.98 677.267 5074.98 676.8C5074.98 675.533 5074.38 674.767 5073.18 674.5C5072.05 674.167 5069.88 673.967 5066.68 673.9C5066.61 673.633 5066.55 673.367 5066.48 673.1C5066.48 672.767 5066.48 672.467 5066.48 672.2C5066.48 671.8 5066.51 671.467 5066.58 671.2C5070.18 670.933 5073.68 670.567 5077.08 670.1C5080.55 669.567 5083.51 668.8 5085.98 667.8L5087.28 668.5C5086.48 671.367 5085.71 674.333 5084.98 677.4C5084.31 680.467 5083.68 683.5 5083.08 686.5L5079.98 701.5L5078.08 709.3H5078.58C5081.85 704.633 5085.25 701.1 5088.78 698.7C5092.31 696.233 5095.95 695 5099.68 695C5102.81 695 5105.01 695.767 5106.28 697.3C5107.55 698.833 5108.18 700.567 5108.18 702.5C5108.18 705.633 5106.65 708.567 5103.58 711.3C5100.51 714.033 5095.55 716.767 5088.68 719.5C5090.15 723.7 5091.38 727 5092.38 729.4C5093.38 731.8 5094.18 733.567 5094.78 734.7C5095.45 735.833 5095.98 736.567 5096.38 736.9C5096.85 737.167 5097.28 737.3 5097.68 737.3C5098.88 737.3 5100.21 736.8 5101.68 735.8C5103.15 734.733 5104.58 733.367 5105.98 731.7C5106.85 732.3 5107.61 732.967 5108.28 733.7C5105.81 737.033 5103.21 739.633 5100.48 741.5C5097.81 743.3 5095.31 744.2 5092.98 744.2C5091.11 744.2 5089.51 743.533 5088.18 742.2C5086.85 740.8 5085.48 738.333 5084.08 734.8C5082.68 731.267 5080.88 726.267 5078.68 719.8C5084.28 717.867 5088.48 715.967 5091.28 714.1C5094.15 712.167 5096.05 710.367 5096.98 708.7C5097.98 707.033 5098.48 705.567 5098.48 704.3C5098.48 703.367 5098.25 702.6 5097.78 702C5097.31 701.4 5096.51 701.1 5095.38 701.1C5093.85 701.1 5092.08 701.7 5090.08 702.9C5088.08 704.033 5086.08 705.6 5084.08 707.6C5082.15 709.533 5080.41 711.8 5078.88 714.4C5077.41 716.933 5076.38 719.567 5075.78 722.3L5075.68 722.7L5071.48 743ZM5136.73 731.7C5137.6 732.3 5138.37 732.967 5139.03 733.7C5136.77 736.7 5134.3 739.2 5131.63 741.2C5129.03 743.2 5126.13 744.2 5122.93 744.2C5120.47 744.2 5118.67 743.6 5117.53 742.4C5116.4 741.133 5115.83 739.467 5115.83 737.4C5115.83 736.667 5115.9 735.9 5116.03 735.1C5116.17 734.233 5116.33 733.367 5116.53 732.5L5122.53 707.5C5123 705.567 5123.23 704.3 5123.23 703.7C5123.23 702.1 5122.63 701.3 5121.43 701.3C5120.5 701.3 5119.27 701.833 5117.73 702.9C5116.27 703.9 5114.8 705.167 5113.33 706.7C5112.87 706.367 5112.43 706.033 5112.03 705.7C5111.7 705.367 5111.37 705 5111.03 704.6C5113.7 701.467 5116.43 699.133 5119.23 697.6C5122.1 696 5124.77 695.2 5127.23 695.2C5129.5 695.2 5131.1 695.8 5132.03 697C5133.03 698.133 5133.53 699.567 5133.53 701.3C5133.53 701.9 5133.47 702.567 5133.33 703.3C5133.27 703.967 5133.17 704.667 5133.03 705.4L5126.63 732C5126.57 732.467 5126.43 733.067 5126.23 733.8C5126.03 734.467 5125.93 735.133 5125.93 735.8C5125.93 736.4 5126.07 736.9 5126.33 737.3C5126.6 737.7 5127.07 737.9 5127.73 737.9C5128.87 737.9 5130.3 737.3 5132.03 736.1C5133.77 734.9 5135.33 733.433 5136.73 731.7ZM5132.13 683.6C5130.33 683.6 5128.87 683 5127.73 681.8C5126.6 680.6 5126.03 679.133 5126.03 677.4C5126.03 675.4 5126.73 673.7 5128.13 672.3C5129.6 670.833 5131.33 670.1 5133.33 670.1C5135.13 670.1 5136.57 670.7 5137.63 671.9C5138.7 673.033 5139.23 674.467 5139.23 676.2C5139.23 678.2 5138.57 679.933 5137.23 681.4C5135.9 682.867 5134.2 683.6 5132.13 683.6ZM5159.3 724.8L5155.1 743H5145.1L5153.3 707.5C5153.77 705.567 5154 704.3 5154 703.7C5154 702.1 5153.4 701.3 5152.2 701.3C5151.27 701.3 5150.04 701.833 5148.5 702.9C5147.04 703.9 5145.57 705.167 5144.1 706.7C5143.64 706.367 5143.2 706.033 5142.8 705.7C5142.47 705.367 5142.14 705 5141.8 704.6C5144.47 701.467 5147.2 699.133 5150 697.6C5152.87 696 5155.54 695.2 5158 695.2C5160.27 695.2 5161.87 695.767 5162.8 696.9C5163.74 698.033 5164.2 699.367 5164.2 700.9C5164.2 701.7 5164.07 702.667 5163.8 703.8C5163.6 704.867 5163.4 706 5163.2 707.2H5163.5C5166.04 703.133 5169 700.1 5172.4 698.1C5175.87 696.033 5179.2 695 5182.4 695C5185.6 695 5188.04 695.9 5189.7 697.7C5191.44 699.433 5192.3 701.567 5192.3 704.1C5192.3 705.5 5192.04 707.367 5191.5 709.7C5191.04 712.033 5190.44 714.533 5189.7 717.2C5188.97 719.867 5188.24 722.5 5187.5 725.1C5186.77 727.633 5186.14 729.9 5185.6 731.9C5185.14 733.833 5184.9 735.2 5184.9 736C5184.9 736.467 5185.04 736.9 5185.3 737.3C5185.57 737.7 5186.04 737.9 5186.7 737.9C5187.84 737.9 5189.27 737.3 5191 736.1C5192.74 734.9 5194.3 733.433 5195.7 731.7C5196.57 732.3 5197.34 732.967 5198 733.7C5195.74 736.7 5193.27 739.2 5190.6 741.2C5188 743.2 5185.1 744.2 5181.9 744.2C5179.44 744.2 5177.64 743.6 5176.5 742.4C5175.37 741.133 5174.8 739.567 5174.8 737.7C5174.8 736.367 5175.04 734.6 5175.5 732.4C5176.04 730.2 5176.67 727.8 5177.4 725.2C5178.14 722.6 5178.84 720.033 5179.5 717.5C5180.24 714.9 5180.84 712.533 5181.3 710.4C5181.84 708.267 5182.1 706.6 5182.1 705.4C5182.1 704.067 5181.8 702.967 5181.2 702.1C5180.6 701.233 5179.54 700.8 5178 700.8C5176.07 700.8 5173.9 701.633 5171.5 703.3C5169.1 704.967 5166.8 707.5 5164.6 710.9C5162.47 714.3 5160.77 718.667 5159.5 724L5159.3 724.8ZM5216.48 768.5C5213.41 768.5 5210.34 768.067 5207.28 767.2C5204.28 766.333 5201.78 764.967 5199.78 763.1C5197.78 761.3 5196.78 759 5196.78 756.2C5196.78 753.067 5197.98 750.433 5200.38 748.3C5202.84 746.167 5205.71 744.267 5208.98 742.6C5207.51 741.933 5206.31 741.1 5205.38 740.1C5204.51 739.033 5204.08 737.733 5204.08 736.2C5204.08 734.333 5204.81 732.6 5206.28 731C5207.74 729.4 5210.08 727.667 5213.28 725.8C5211.08 724.6 5209.31 722.967 5207.98 720.9C5206.64 718.833 5205.98 716.433 5205.98 713.7C5205.98 710.3 5206.98 707.2 5208.98 704.4C5211.04 701.533 5213.78 699.267 5217.18 697.6C5220.58 695.867 5224.31 695 5228.38 695C5234.31 695 5238.91 696.767 5242.18 700.3C5244.04 699.233 5245.44 698.033 5246.38 696.7C5245.11 695.367 5244.48 693.8 5244.48 692C5244.48 690.667 5244.88 689.533 5245.68 688.6C5246.54 687.6 5247.71 687.1 5249.18 687.1C5250.38 687.1 5251.41 687.5 5252.28 688.3C5253.21 689.033 5253.68 690.167 5253.68 691.7C5253.68 693.767 5252.78 695.667 5250.98 697.4C5249.24 699.133 5246.91 700.9 5243.98 702.7C5245.18 704.833 5245.78 707.233 5245.78 709.9C5245.78 713.367 5244.81 716.5 5242.88 719.3C5240.94 722.1 5238.34 724.333 5235.08 726C5231.81 727.6 5228.14 728.4 5224.08 728.4C5221.34 728.4 5218.81 728 5216.48 727.2C5215.14 728.067 5214.08 728.967 5213.28 729.9C5212.54 730.767 5212.18 731.6 5212.18 732.4C5212.18 733.667 5212.98 734.633 5214.58 735.3C5216.24 735.967 5218.34 736.5 5220.88 736.9C5223.41 737.3 5226.11 737.767 5228.98 738.3C5231.84 738.767 5234.54 739.467 5237.08 740.4C5239.61 741.267 5241.68 742.5 5243.28 744.1C5244.94 745.7 5245.78 747.833 5245.78 750.5C5245.78 753.367 5244.81 755.933 5242.88 758.2C5241.01 760.467 5238.58 762.333 5235.58 763.8C5232.58 765.333 5229.38 766.5 5225.98 767.3C5222.64 768.1 5219.48 768.5 5216.48 768.5ZM5212.78 743.9C5210.51 745.433 5208.78 747.067 5207.58 748.8C5206.38 750.6 5205.78 752.567 5205.78 754.7C5205.78 757.033 5206.44 758.933 5207.78 760.4C5209.11 761.867 5210.81 762.933 5212.88 763.6C5214.94 764.267 5217.08 764.6 5219.28 764.6C5221.88 764.6 5224.54 764.167 5227.28 763.3C5230.01 762.5 5232.31 761.3 5234.18 759.7C5236.04 758.167 5236.98 756.3 5236.98 754.1C5236.98 752.1 5236.18 750.567 5234.58 749.5C5233.04 748.433 5231.01 747.6 5228.48 747C5226.01 746.4 5223.38 745.9 5220.58 745.5C5217.84 745.1 5215.24 744.567 5212.78 743.9ZM5224.08 724.9C5226.21 724.9 5228.01 724.367 5229.48 723.3C5231.01 722.233 5232.24 720.867 5233.18 719.2C5234.11 717.533 5234.78 715.767 5235.18 713.9C5235.64 712.033 5235.88 710.3 5235.88 708.7C5235.88 707.233 5235.64 705.7 5235.18 704.1C5234.78 702.433 5233.98 701.033 5232.78 699.9C5231.58 698.767 5229.81 698.2 5227.48 698.2C5225.34 698.2 5223.51 698.733 5221.98 699.8C5220.51 700.867 5219.31 702.233 5218.38 703.9C5217.51 705.567 5216.88 707.333 5216.48 709.2C5216.08 711 5215.88 712.7 5215.88 714.3C5215.88 715.9 5216.11 717.533 5216.58 719.2C5217.04 720.8 5217.88 722.167 5219.08 723.3C5220.28 724.367 5221.94 724.9 5224.08 724.9Z"
            fill="white" />
        <path
            d="M4933.9 1420.4C4924.63 1420.4 4917.3 1417.73 4911.9 1412.4C4906.5 1407.07 4903.8 1399.57 4903.8 1389.9C4903.8 1383.9 4904.8 1378.37 4906.8 1373.3C4908.87 1368.17 4911.7 1363.7 4915.3 1359.9C4918.97 1356.1 4923.27 1353.17 4928.2 1351.1C4933.2 1348.97 4938.6 1347.9 4944.4 1347.9C4947.8 1347.9 4950.8 1348.17 4953.4 1348.7C4956.07 1349.23 4958.4 1349.8 4960.4 1350.4C4962.47 1350.93 4964.23 1351.2 4965.7 1351.2C4966.1 1351.2 4966.57 1351.17 4967.1 1351.1C4967.63 1351.03 4968.07 1350.97 4968.4 1350.9C4968 1353.77 4967.6 1356.77 4967.2 1359.9C4966.87 1362.97 4966.53 1366.2 4966.2 1369.6C4965.6 1369.67 4965 1369.73 4964.4 1369.8C4963.87 1369.8 4963.3 1369.8 4962.7 1369.8C4962.37 1363.93 4960.8 1359.5 4958 1356.5C4955.2 1353.5 4950.93 1352 4945.2 1352C4940.87 1352 4937.07 1352.87 4933.8 1354.6C4930.53 1356.27 4927.73 1358.53 4925.4 1361.4C4923.13 1364.27 4921.27 1367.5 4919.8 1371.1C4918.4 1374.63 4917.37 1378.27 4916.7 1382C4916.1 1385.73 4915.8 1389.3 4915.8 1392.7C4915.8 1399.83 4917.27 1405.57 4920.2 1409.9C4923.2 1414.17 4927.97 1416.3 4934.5 1416.3C4939.7 1416.3 4944.4 1414.83 4948.6 1411.9C4952.87 1408.97 4956.1 1404.47 4958.3 1398.4C4958.83 1398.4 4959.43 1398.4 4960.1 1398.4C4960.83 1398.4 4961.47 1398.43 4962 1398.5C4961.13 1401.37 4960.37 1404.27 4959.7 1407.2C4959.03 1410.13 4958.43 1413.13 4957.9 1416.2C4953.83 1417.33 4949.77 1418.3 4945.7 1419.1C4941.7 1419.97 4937.77 1420.4 4933.9 1420.4ZM4994.31 1407.7C4995.18 1408.3 4995.94 1408.97 4996.61 1409.7C4994.34 1412.7 4991.88 1415.2 4989.21 1417.2C4986.61 1419.2 4983.71 1420.2 4980.51 1420.2C4978.04 1420.2 4976.24 1419.6 4975.11 1418.4C4973.98 1417.13 4973.41 1415.47 4973.41 1413.4C4973.41 1412.67 4973.48 1411.87 4973.61 1411C4973.74 1410.13 4973.91 1409.27 4974.11 1408.4L4984.61 1357.3C4984.81 1356.37 4984.98 1355.53 4985.11 1354.8C4985.24 1354 4985.31 1353.37 4985.31 1352.9C4985.31 1351.57 4984.71 1350.77 4983.51 1350.5C4982.38 1350.17 4980.21 1349.97 4977.01 1349.9C4976.94 1349.43 4976.88 1349 4976.81 1348.6C4976.81 1348.13 4976.84 1347.67 4976.91 1347.2C4980.51 1346.93 4984.01 1346.57 4987.41 1346.1C4990.88 1345.57 4993.84 1344.8 4996.31 1343.8L4997.61 1344.5C4996.94 1346.97 4996.24 1349.67 4995.51 1352.6C4994.84 1355.53 4994.14 1358.83 4993.41 1362.5L4984.11 1407.8C4984.04 1408.27 4983.91 1408.9 4983.71 1409.7C4983.58 1410.43 4983.51 1411.13 4983.51 1411.8C4983.51 1412.4 4983.64 1412.9 4983.91 1413.3C4984.18 1413.7 4984.64 1413.9 4985.31 1413.9C4986.44 1413.9 4987.88 1413.3 4989.61 1412.1C4991.34 1410.9 4992.91 1409.43 4994.31 1407.7ZM5041.31 1379.2C5041.31 1381.8 5040.48 1384.13 5038.81 1386.2C5037.14 1388.2 5034.88 1389.93 5032.01 1391.4C5029.21 1392.87 5026.08 1394.07 5022.61 1395C5019.14 1395.93 5015.61 1396.6 5012.01 1397C5011.61 1399.07 5011.41 1401 5011.41 1402.8C5011.41 1406.13 5012.14 1408.8 5013.61 1410.8C5015.08 1412.73 5017.44 1413.7 5020.71 1413.7C5023.58 1413.7 5026.28 1412.93 5028.81 1411.4C5031.34 1409.87 5033.58 1407.87 5035.51 1405.4C5036.58 1406 5037.34 1406.63 5037.81 1407.3C5035.54 1411.17 5032.78 1414.3 5029.51 1416.7C5026.24 1419.03 5022.34 1420.2 5017.81 1420.2C5012.54 1420.2 5008.38 1418.63 5005.31 1415.5C5002.31 1412.3 5000.81 1408.03 5000.81 1402.7C5000.81 1398.97 5001.54 1395.23 5003.01 1391.5C5004.48 1387.77 5006.51 1384.37 5009.11 1381.3C5011.78 1378.17 5014.91 1375.67 5018.51 1373.8C5022.18 1371.93 5026.14 1371 5030.41 1371C5034.14 1371 5036.88 1371.73 5038.61 1373.2C5040.41 1374.67 5041.31 1376.67 5041.31 1379.2ZM5012.81 1393.5C5015.94 1393.1 5018.94 1392.37 5021.81 1391.3C5024.74 1390.17 5027.14 1388.7 5029.01 1386.9C5030.88 1385.03 5031.81 1382.77 5031.81 1380.1C5031.81 1378.63 5031.48 1377.47 5030.81 1376.6C5030.14 1375.67 5029.08 1375.2 5027.61 1375.2C5025.54 1375.2 5023.54 1376.1 5021.61 1377.9C5019.68 1379.63 5017.94 1381.9 5016.41 1384.7C5014.88 1387.5 5013.68 1390.43 5012.81 1393.5ZM5056.84 1420.1C5054.77 1420.1 5052.8 1419.57 5050.94 1418.5C5049.07 1417.37 5047.57 1415.63 5046.44 1413.3C5045.3 1410.97 5044.74 1407.97 5044.74 1404.3C5044.74 1399.77 5045.6 1395.5 5047.34 1391.5C5049.07 1387.5 5051.34 1383.97 5054.14 1380.9C5056.94 1377.83 5060 1375.43 5063.34 1373.7C5066.74 1371.9 5070.07 1371 5073.34 1371C5074.6 1371 5076.04 1371.2 5077.64 1371.6C5079.24 1371.93 5080.9 1372.53 5082.64 1373.4C5084.04 1373.2 5085.47 1373 5086.94 1372.8C5088.47 1372.6 5090.04 1372.37 5091.64 1372.1L5091.94 1372.5C5091.14 1375.3 5090.44 1377.97 5089.84 1380.5C5089.24 1382.97 5088.64 1385.5 5088.04 1388.1L5083.44 1407.9C5083.37 1408.37 5083.24 1408.97 5083.04 1409.7C5082.84 1410.43 5082.74 1411.13 5082.74 1411.8C5082.74 1412.4 5082.87 1412.9 5083.14 1413.3C5083.4 1413.7 5083.87 1413.9 5084.54 1413.9C5085.67 1413.9 5087.1 1413.3 5088.84 1412.1C5090.57 1410.9 5092.14 1409.43 5093.54 1407.7C5094.4 1408.3 5095.17 1408.97 5095.84 1409.7C5093.57 1412.7 5091.14 1415.2 5088.54 1417.2C5085.94 1419.2 5083 1420.2 5079.74 1420.2C5077.27 1420.2 5075.5 1419.6 5074.44 1418.4C5073.37 1417.13 5072.84 1415.57 5072.84 1413.7C5072.84 1411.9 5073.2 1409.83 5073.94 1407.5H5073.44C5070.97 1411.77 5068.3 1414.93 5065.44 1417C5062.64 1419.07 5059.77 1420.1 5056.84 1420.1ZM5080.04 1379.7C5078.64 1378.43 5077.17 1377.43 5075.64 1376.7C5074.1 1375.9 5072.54 1375.5 5070.94 1375.5C5068.47 1375.5 5066.27 1376.4 5064.34 1378.2C5062.4 1380 5060.77 1382.33 5059.44 1385.2C5058.1 1388 5057.1 1391.03 5056.44 1394.3C5055.77 1397.5 5055.44 1400.57 5055.44 1403.5C5055.44 1407.5 5055.97 1410.23 5057.04 1411.7C5058.1 1413.1 5059.37 1413.8 5060.84 1413.8C5062.57 1413.8 5064.47 1412.97 5066.54 1411.3C5068.67 1409.57 5070.74 1406.83 5072.74 1403.1C5074.8 1399.3 5076.57 1394.3 5078.04 1388.1L5080.04 1379.7ZM5116.42 1400.8L5112.22 1419H5102.22L5110.42 1383.5C5110.88 1381.57 5111.12 1380.3 5111.12 1379.7C5111.12 1378.1 5110.52 1377.3 5109.32 1377.3C5108.38 1377.3 5107.15 1377.83 5105.62 1378.9C5104.15 1379.9 5102.68 1381.17 5101.22 1382.7C5100.75 1382.37 5100.32 1382.03 5099.92 1381.7C5099.58 1381.37 5099.25 1381 5098.92 1380.6C5101.58 1377.47 5104.32 1375.13 5107.12 1373.6C5109.98 1372 5112.65 1371.2 5115.12 1371.2C5117.38 1371.2 5118.98 1371.77 5119.92 1372.9C5120.85 1374.03 5121.32 1375.37 5121.32 1376.9C5121.32 1377.7 5121.18 1378.67 5120.92 1379.8C5120.72 1380.87 5120.52 1382 5120.32 1383.2H5120.62C5123.15 1379.13 5126.12 1376.1 5129.52 1374.1C5132.98 1372.03 5136.32 1371 5139.52 1371C5142.72 1371 5145.15 1371.9 5146.82 1373.7C5148.55 1375.43 5149.42 1377.57 5149.42 1380.1C5149.42 1381.5 5149.15 1383.37 5148.62 1385.7C5148.15 1388.03 5147.55 1390.53 5146.82 1393.2C5146.08 1395.87 5145.35 1398.5 5144.62 1401.1C5143.88 1403.63 5143.25 1405.9 5142.72 1407.9C5142.25 1409.83 5142.02 1411.2 5142.02 1412C5142.02 1412.47 5142.15 1412.9 5142.42 1413.3C5142.68 1413.7 5143.15 1413.9 5143.82 1413.9C5144.95 1413.9 5146.38 1413.3 5148.12 1412.1C5149.85 1410.9 5151.42 1409.43 5152.82 1407.7C5153.68 1408.3 5154.45 1408.97 5155.12 1409.7C5152.85 1412.7 5150.38 1415.2 5147.72 1417.2C5145.12 1419.2 5142.22 1420.2 5139.02 1420.2C5136.55 1420.2 5134.75 1419.6 5133.62 1418.4C5132.48 1417.13 5131.92 1415.57 5131.92 1413.7C5131.92 1412.37 5132.15 1410.6 5132.62 1408.4C5133.15 1406.2 5133.78 1403.8 5134.52 1401.2C5135.25 1398.6 5135.95 1396.03 5136.62 1393.5C5137.35 1390.9 5137.95 1388.53 5138.42 1386.4C5138.95 1384.27 5139.22 1382.6 5139.22 1381.4C5139.22 1380.07 5138.92 1378.97 5138.32 1378.1C5137.72 1377.23 5136.65 1376.8 5135.12 1376.8C5133.18 1376.8 5131.02 1377.63 5128.62 1379.3C5126.22 1380.97 5123.92 1383.5 5121.72 1386.9C5119.58 1390.3 5117.88 1394.67 5116.62 1400L5116.42 1400.8ZM5183.69 1407.7C5184.56 1408.3 5185.32 1408.97 5185.99 1409.7C5183.72 1412.7 5181.26 1415.2 5178.59 1417.2C5175.99 1419.2 5173.09 1420.2 5169.89 1420.2C5167.42 1420.2 5165.62 1419.6 5164.49 1418.4C5163.36 1417.13 5162.79 1415.47 5162.79 1413.4C5162.79 1412.67 5162.86 1411.9 5162.99 1411.1C5163.12 1410.23 5163.29 1409.37 5163.49 1408.5L5169.49 1383.5C5169.96 1381.57 5170.19 1380.3 5170.19 1379.7C5170.19 1378.1 5169.59 1377.3 5168.39 1377.3C5167.46 1377.3 5166.22 1377.83 5164.69 1378.9C5163.22 1379.9 5161.76 1381.17 5160.29 1382.7C5159.82 1382.37 5159.39 1382.03 5158.99 1381.7C5158.66 1381.37 5158.32 1381 5157.99 1380.6C5160.66 1377.47 5163.39 1375.13 5166.19 1373.6C5169.06 1372 5171.72 1371.2 5174.19 1371.2C5176.46 1371.2 5178.06 1371.8 5178.99 1373C5179.99 1374.13 5180.49 1375.57 5180.49 1377.3C5180.49 1377.9 5180.42 1378.57 5180.29 1379.3C5180.22 1379.97 5180.12 1380.67 5179.99 1381.4L5173.59 1408C5173.52 1408.47 5173.39 1409.07 5173.19 1409.8C5172.99 1410.47 5172.89 1411.13 5172.89 1411.8C5172.89 1412.4 5173.02 1412.9 5173.29 1413.3C5173.56 1413.7 5174.02 1413.9 5174.69 1413.9C5175.82 1413.9 5177.26 1413.3 5178.99 1412.1C5180.72 1410.9 5182.29 1409.43 5183.69 1407.7ZM5179.09 1359.6C5177.29 1359.6 5175.82 1359 5174.69 1357.8C5173.56 1356.6 5172.99 1355.13 5172.99 1353.4C5172.99 1351.4 5173.69 1349.7 5175.09 1348.3C5176.56 1346.83 5178.29 1346.1 5180.29 1346.1C5182.09 1346.1 5183.52 1346.7 5184.59 1347.9C5185.66 1349.03 5186.19 1350.47 5186.19 1352.2C5186.19 1354.2 5185.52 1355.93 5184.19 1357.4C5182.86 1358.87 5181.16 1359.6 5179.09 1359.6ZM5206.26 1400.8L5202.06 1419H5192.06L5200.26 1383.5C5200.73 1381.57 5200.96 1380.3 5200.96 1379.7C5200.96 1378.1 5200.36 1377.3 5199.16 1377.3C5198.23 1377.3 5196.99 1377.83 5195.46 1378.9C5193.99 1379.9 5192.53 1381.17 5191.06 1382.7C5190.59 1382.37 5190.16 1382.03 5189.76 1381.7C5189.43 1381.37 5189.09 1381 5188.76 1380.6C5191.43 1377.47 5194.16 1375.13 5196.96 1373.6C5199.83 1372 5202.49 1371.2 5204.96 1371.2C5207.23 1371.2 5208.83 1371.77 5209.76 1372.9C5210.69 1374.03 5211.16 1375.37 5211.16 1376.9C5211.16 1377.7 5211.03 1378.67 5210.76 1379.8C5210.56 1380.87 5210.36 1382 5210.16 1383.2H5210.46C5212.99 1379.13 5215.96 1376.1 5219.36 1374.1C5222.83 1372.03 5226.16 1371 5229.36 1371C5232.56 1371 5234.99 1371.9 5236.66 1373.7C5238.39 1375.43 5239.26 1377.57 5239.26 1380.1C5239.26 1381.5 5238.99 1383.37 5238.46 1385.7C5237.99 1388.03 5237.39 1390.53 5236.66 1393.2C5235.93 1395.87 5235.19 1398.5 5234.46 1401.1C5233.73 1403.63 5233.09 1405.9 5232.56 1407.9C5232.09 1409.83 5231.86 1411.2 5231.86 1412C5231.86 1412.47 5231.99 1412.9 5232.26 1413.3C5232.53 1413.7 5232.99 1413.9 5233.66 1413.9C5234.79 1413.9 5236.23 1413.3 5237.96 1412.1C5239.69 1410.9 5241.26 1409.43 5242.66 1407.7C5243.53 1408.3 5244.29 1408.97 5244.96 1409.7C5242.69 1412.7 5240.23 1415.2 5237.56 1417.2C5234.96 1419.2 5232.06 1420.2 5228.86 1420.2C5226.39 1420.2 5224.59 1419.6 5223.46 1418.4C5222.33 1417.13 5221.76 1415.57 5221.76 1413.7C5221.76 1412.37 5221.99 1410.6 5222.46 1408.4C5222.99 1406.2 5223.63 1403.8 5224.36 1401.2C5225.09 1398.6 5225.79 1396.03 5226.46 1393.5C5227.19 1390.9 5227.79 1388.53 5228.26 1386.4C5228.79 1384.27 5229.06 1382.6 5229.06 1381.4C5229.06 1380.07 5228.76 1378.97 5228.16 1378.1C5227.56 1377.23 5226.49 1376.8 5224.96 1376.8C5223.03 1376.8 5220.86 1377.63 5218.46 1379.3C5216.06 1380.97 5213.76 1383.5 5211.56 1386.9C5209.43 1390.3 5207.73 1394.67 5206.46 1400L5206.26 1400.8ZM5263.43 1444.5C5260.37 1444.5 5257.3 1444.07 5254.23 1443.2C5251.23 1442.33 5248.73 1440.97 5246.73 1439.1C5244.73 1437.3 5243.73 1435 5243.73 1432.2C5243.73 1429.07 5244.93 1426.43 5247.33 1424.3C5249.8 1422.17 5252.67 1420.27 5255.93 1418.6C5254.47 1417.93 5253.27 1417.1 5252.33 1416.1C5251.47 1415.03 5251.03 1413.73 5251.03 1412.2C5251.03 1410.33 5251.77 1408.6 5253.23 1407C5254.7 1405.4 5257.03 1403.67 5260.23 1401.8C5258.03 1400.6 5256.27 1398.97 5254.93 1396.9C5253.6 1394.83 5252.93 1392.43 5252.93 1389.7C5252.93 1386.3 5253.93 1383.2 5255.93 1380.4C5258 1377.53 5260.73 1375.27 5264.13 1373.6C5267.53 1371.87 5271.27 1371 5275.33 1371C5281.27 1371 5285.87 1372.77 5289.13 1376.3C5291 1375.23 5292.4 1374.03 5293.33 1372.7C5292.07 1371.37 5291.43 1369.8 5291.43 1368C5291.43 1366.67 5291.83 1365.53 5292.63 1364.6C5293.5 1363.6 5294.67 1363.1 5296.13 1363.1C5297.33 1363.1 5298.37 1363.5 5299.23 1364.3C5300.17 1365.03 5300.63 1366.17 5300.63 1367.7C5300.63 1369.77 5299.73 1371.67 5297.93 1373.4C5296.2 1375.13 5293.87 1376.9 5290.93 1378.7C5292.13 1380.83 5292.73 1383.23 5292.73 1385.9C5292.73 1389.37 5291.77 1392.5 5289.83 1395.3C5287.9 1398.1 5285.3 1400.33 5282.03 1402C5278.77 1403.6 5275.1 1404.4 5271.03 1404.4C5268.3 1404.4 5265.77 1404 5263.43 1403.2C5262.1 1404.07 5261.03 1404.97 5260.23 1405.9C5259.5 1406.77 5259.13 1407.6 5259.13 1408.4C5259.13 1409.67 5259.93 1410.63 5261.53 1411.3C5263.2 1411.97 5265.3 1412.5 5267.83 1412.9C5270.37 1413.3 5273.07 1413.77 5275.93 1414.3C5278.8 1414.77 5281.5 1415.47 5284.03 1416.4C5286.57 1417.27 5288.63 1418.5 5290.23 1420.1C5291.9 1421.7 5292.73 1423.83 5292.73 1426.5C5292.73 1429.37 5291.77 1431.93 5289.83 1434.2C5287.97 1436.47 5285.53 1438.33 5282.53 1439.8C5279.53 1441.33 5276.33 1442.5 5272.93 1443.3C5269.6 1444.1 5266.43 1444.5 5263.43 1444.5ZM5259.73 1419.9C5257.47 1421.43 5255.73 1423.07 5254.53 1424.8C5253.33 1426.6 5252.73 1428.57 5252.73 1430.7C5252.73 1433.03 5253.4 1434.93 5254.73 1436.4C5256.07 1437.87 5257.77 1438.93 5259.83 1439.6C5261.9 1440.27 5264.03 1440.6 5266.23 1440.6C5268.83 1440.6 5271.5 1440.17 5274.23 1439.3C5276.97 1438.5 5279.27 1437.3 5281.13 1435.7C5283 1434.17 5283.93 1432.3 5283.93 1430.1C5283.93 1428.1 5283.13 1426.57 5281.53 1425.5C5280 1424.43 5277.97 1423.6 5275.43 1423C5272.97 1422.4 5270.33 1421.9 5267.53 1421.5C5264.8 1421.1 5262.2 1420.57 5259.73 1419.9ZM5271.03 1400.9C5273.17 1400.9 5274.97 1400.37 5276.43 1399.3C5277.97 1398.23 5279.2 1396.87 5280.13 1395.2C5281.07 1393.53 5281.73 1391.77 5282.13 1389.9C5282.6 1388.03 5282.83 1386.3 5282.83 1384.7C5282.83 1383.23 5282.6 1381.7 5282.13 1380.1C5281.73 1378.43 5280.93 1377.03 5279.73 1375.9C5278.53 1374.77 5276.77 1374.2 5274.43 1374.2C5272.3 1374.2 5270.47 1374.73 5268.93 1375.8C5267.47 1376.87 5266.27 1378.23 5265.33 1379.9C5264.47 1381.57 5263.83 1383.33 5263.43 1385.2C5263.03 1387 5262.83 1388.7 5262.83 1390.3C5262.83 1391.9 5263.07 1393.53 5263.53 1395.2C5264 1396.8 5264.83 1398.17 5266.03 1399.3C5267.23 1400.37 5268.9 1400.9 5271.03 1400.9Z"
            fill="white" />
    </g>
    <defs>
        <clipPath id="clip0_1278_90">
            <rect width="6325" height="3191" fill="white" />
        </clipPath>
    </defs>
</svg>