<svg width="1920" height="1080" viewBox="0 0 6325 3191" fill="none" xmlns="http://www.w3.org/2000/svg">
<g clip-path="url(#clip0_1173_41)">
<path d="M6325 0H0V3191H6325V0Z" fill="#353535"/>
<path d="M5785.84 2844.74L648.93 2822.01L-31.327 3118.78L3094.21 3132.62L6320.67 3145.32L5785.84 2844.74Z" fill="#292929"/>
<path d="M6325 4.19385L5319.71 414L3096.51 400L921.712 414L-31 0H3096.51L6325 4.19385Z" fill="#292929"/>
<rect opacity="0.48" y="1472" width="937" height="1181" rx="21" fill="#D9D9D9" fill-opacity="0.76"/>
<line y1="-14" x2="422.706" y2="-14" transform="matrix(0.999976 -0.00699179 0.00196917 0.999998 191.406 1709.71)" stroke="black" stroke-width="28"/>
<path d="M191.406 1887.91L848.113 1887.91" stroke="black" stroke-width="28"/>
<line y1="-14" x2="671.919" y2="-14" transform="matrix(0.999997 -0.00224534 0.00179358 0.999998 191.406 2067.59)" stroke="black" stroke-width="28"/>
<line y1="-14" x2="671.919" y2="-14" transform="matrix(0.999996 0.00266715 -0.00213052 0.999998 191.406 2295.47)" stroke="black" stroke-width="28"/>
<path d="M5836.5 384L6157.36 760.211H5515.64L5836.5 384Z" fill="#D9D9D9"/>
<rect x="5525.6" y="750.344" width="627.764" height="268.655" fill="#D9D9D9"/>
<path d="M5791.8 568.109H5815.64V586.896H5791.8V568.109Z" fill="#EB0000"/>
<path d="M5791.8 568.109H5815.64V586.896H5791.8V568.109Z" fill="#515151"/>
<path d="M5863.32 568.109H5887.16V586.896H5863.32V568.109Z" fill="#EB0000"/>
<path d="M5863.32 568.109H5887.16V586.896H5863.32V568.109Z" fill="#515151"/>
<path d="M5791.8 603.805H5815.64V622.592H5791.8V603.805Z" fill="#2F2F2F"/>
<path d="M5791.8 603.805H5815.64V622.592H5791.8V603.805Z" fill="#555555"/>
<path d="M5863.32 603.805H5887.16V622.592H5863.32V603.805Z" fill="#EB0000"/>
<path d="M5863.32 603.805H5887.16V622.592H5863.32V603.805Z" fill="#515151"/>
<rect x="5791.8" y="806.711" width="111.249" height="150.297" fill="#696969"/>
<ellipse cx="5888.15" cy="885.616" rx="8.93968" ry="7.51483" fill="black"/>
<ellipse cx="5873.5" cy="1302.5" rx="180.5" ry="169.5" fill="#D9D9D9"/>
<g filter="url(#filter0_dddddddd_1173_41)">
<ellipse cx="5874" cy="1303" rx="142" ry="126" fill="#171717" fill-opacity="0.2" shape-rendering="crispEdges"/>
</g>
</g>
<path d="M40 519C40 516.301 201.671 553.268 211.561 554.941C211.914 555.001 212.177 554.962 212.527 554.885L400 514L612.5 546L843 514C845.762 514 848 516.239 848 519V946C848 948.761 663.261 924 660.5 924H236.571C235.245 924 233.942 923.636 232.621 923.519C212.162 921.717 40 948.632 40 946V519Z" fill="#536B52"/>
<ellipse cx="443.5" cy="729.5" rx="211.5" ry="190.5" fill="#BD9506"/>
<path d="M414.439 794.879C424.04 797.101 433.059 800.449 442.797 802.1C446.951 802.804 450.214 801.151 454.187 800.866C460.351 800.424 465.961 798.235 471.311 795.371C476.58 792.551 482.093 789.341 485.732 784.507C489.459 779.557 491.227 773.306 492.127 767.349C493.398 758.943 495.783 749.711 492.381 741.523C488.609 732.447 480.786 726.283 472.998 720.524C468.992 717.562 463.279 716.865 458.576 715.567C453.346 714.123 447.513 713.163 442.104 712.608C428.479 711.211 410.204 713.585 399.61 703.157C390.306 694 393.246 681.828 398.942 671.974C402.788 665.319 407.436 660.41 413.723 655.919C420.687 650.945 428.822 649.098 437.454 648.861C449.421 648.532 461.024 650.48 472.686 652.895C476.164 653.615 479.553 654.498 483.066 655.089C485.163 655.441 487.344 655.725 488.755 657.346" stroke="black" stroke-width="23" stroke-linecap="round"/>
<line x1="429" y1="836.028" x2="428" y2="583.028" stroke="black" stroke-width="14"/>
<line x1="470" y1="836.024" x2="469" y2="583.024" stroke="black" stroke-width="12"/>
<defs>
<filter id="filter0_dddddddd_1173_41" x="5728" y="1177" width="292" height="260" filterUnits="userSpaceOnUse" color-interpolation-filters="sRGB">
<feFlood flood-opacity="0" result="BackgroundImageFix"/>
<feColorMatrix in="SourceAlpha" type="matrix" values="0 0 0 0 0 0 0 0 0 0 0 0 0 0 0 0 0 0 127 0" result="hardAlpha"/>
<feOffset dy="4"/>
<feGaussianBlur stdDeviation="2"/>
<feComposite in2="hardAlpha" operator="out"/>
<feColorMatrix type="matrix" values="0 0 0 0 0 0 0 0 0 0 0 0 0 0 0 0 0 0 0.25 0"/>
<feBlend mode="normal" in2="BackgroundImageFix" result="effect1_dropShadow_1173_41"/>
<feColorMatrix in="SourceAlpha" type="matrix" values="0 0 0 0 0 0 0 0 0 0 0 0 0 0 0 0 0 0 127 0" result="hardAlpha"/>
<feOffset dy="4"/>
<feGaussianBlur stdDeviation="2"/>
<feComposite in2="hardAlpha" operator="out"/>
<feColorMatrix type="matrix" values="0 0 0 0 0 0 0 0 0 0 0 0 0 0 0 0 0 0 0.25 0"/>
<feBlend mode="normal" in2="effect1_dropShadow_1173_41" result="effect2_dropShadow_1173_41"/>
<feColorMatrix in="SourceAlpha" type="matrix" values="0 0 0 0 0 0 0 0 0 0 0 0 0 0 0 0 0 0 127 0" result="hardAlpha"/>
<feOffset dy="4"/>
<feGaussianBlur stdDeviation="2"/>
<feComposite in2="hardAlpha" operator="out"/>
<feColorMatrix type="matrix" values="0 0 0 0 0 0 0 0 0 0 0 0 0 0 0 0 0 0 0.25 0"/>
<feBlend mode="normal" in2="effect2_dropShadow_1173_41" result="effect3_dropShadow_1173_41"/>
<feColorMatrix in="SourceAlpha" type="matrix" values="0 0 0 0 0 0 0 0 0 0 0 0 0 0 0 0 0 0 127 0" result="hardAlpha"/>
<feOffset dy="4"/>
<feGaussianBlur stdDeviation="2"/>
<feComposite in2="hardAlpha" operator="out"/>
<feColorMatrix type="matrix" values="0 0 0 0 0 0 0 0 0 0 0 0 0 0 0 0 0 0 0.25 0"/>
<feBlend mode="normal" in2="effect3_dropShadow_1173_41" result="effect4_dropShadow_1173_41"/>
<feColorMatrix in="SourceAlpha" type="matrix" values="0 0 0 0 0 0 0 0 0 0 0 0 0 0 0 0 0 0 127 0" result="hardAlpha"/>
<feOffset dy="4"/>
<feGaussianBlur stdDeviation="2"/>
<feComposite in2="hardAlpha" operator="out"/>
<feColorMatrix type="matrix" values="0 0 0 0 0 0 0 0 0 0 0 0 0 0 0 0 0 0 0.25 0"/>
<feBlend mode="normal" in2="effect4_dropShadow_1173_41" result="effect5_dropShadow_1173_41"/>
<feColorMatrix in="SourceAlpha" type="matrix" values="0 0 0 0 0 0 0 0 0 0 0 0 0 0 0 0 0 0 127 0" result="hardAlpha"/>
<feOffset dy="4"/>
<feGaussianBlur stdDeviation="2"/>
<feComposite in2="hardAlpha" operator="out"/>
<feColorMatrix type="matrix" values="0 0 0 0 0 0 0 0 0 0 0 0 0 0 0 0 0 0 0.25 0"/>
<feBlend mode="normal" in2="effect5_dropShadow_1173_41" result="effect6_dropShadow_1173_41"/>
<feColorMatrix in="SourceAlpha" type="matrix" values="0 0 0 0 0 0 0 0 0 0 0 0 0 0 0 0 0 0 127 0" result="hardAlpha"/>
<feOffset dy="4"/>
<feGaussianBlur stdDeviation="2"/>
<feComposite in2="hardAlpha" operator="out"/>
<feColorMatrix type="matrix" values="0 0 0 0 0 0 0 0 0 0 0 0 0 0 0 0 0 0 0.25 0"/>
<feBlend mode="normal" in2="effect6_dropShadow_1173_41" result="effect7_dropShadow_1173_41"/>
<feColorMatrix in="SourceAlpha" type="matrix" values="0 0 0 0 0 0 0 0 0 0 0 0 0 0 0 0 0 0 127 0" result="hardAlpha"/>
<feOffset dy="4"/>
<feGaussianBlur stdDeviation="2"/>
<feComposite in2="hardAlpha" operator="out"/>
<feColorMatrix type="matrix" values="0 0 0 0 0 0 0 0 0 0 0 0 0 0 0 0 0 0 0.25 0"/>
<feBlend mode="normal" in2="effect7_dropShadow_1173_41" result="effect8_dropShadow_1173_41"/>
<feBlend mode="normal" in="SourceGraphic" in2="effect8_dropShadow_1173_41" result="shape"/>
</filter>
<clipPath id="clip0_1173_41">
<rect width="6325" height="3191" fill="white"/>
</clipPath>
</defs>
</svg>
