<svg width="1920" height="1080" viewBox="0 0 6325 3191" fill="none" xmlns="http://www.w3.org/2000/svg">
    <g clip-path="url(#clip0_1275_45)">
        <path d="M6325 0H0V3191H6325V0Z" fill="#353535" />
        <path d="M5025.59 2684H1110L0 3133H3130.46L6362 3126.25L5025.59 2684Z" fill="#292929" />
        <path d="M4966.32 410H985.492L-143 0H3039.62L6325 6.16415L4966.32 410Z" fill="#292929" />
        <line x1="5555.5" y1="2678" x2="5555.5" y2="2926" stroke="black" />
        <path
            d="M5442.3 587.1C5441.3 588.367 5440.37 589.933 5439.5 591.8C5438.7 593.667 5438.03 595.967 5437.5 598.7L5430.1 636.1C5429.83 637.233 5429.6 638.233 5429.4 639.1C5429.27 639.9 5429.2 640.633 5429.2 641.3C5429.2 642.767 5429.73 643.667 5430.8 644C5431.93 644.333 5434.33 644.633 5438 644.9C5437.93 645.367 5437.83 645.9 5437.7 646.5C5437.63 647.1 5437.53 647.633 5437.4 648.1C5435.47 648.1 5433.23 648.067 5430.7 648C5428.17 647.933 5425.73 647.9 5423.4 647.9C5420.93 647.9 5418.3 647.933 5415.5 648C5412.7 648.067 5410.37 648.1 5408.5 648.1C5408.5 647.633 5408.53 647.1 5408.6 646.5C5408.67 645.9 5408.8 645.367 5409 644.9C5412 644.633 5414.17 644.367 5415.5 644.1C5416.9 643.767 5417.87 643.1 5418.4 642.1C5418.93 641.1 5419.4 639.5 5419.8 637.3L5427.1 599.2C5427.3 598.2 5427.4 597.4 5427.4 596.8C5427.4 596.267 5427.23 595.8 5426.9 595.4C5426.63 595 5426.1 594.8 5425.3 594.8C5423.77 594.8 5420.6 595.267 5415.8 596.2C5415.67 595.267 5415.53 594.2 5415.4 593C5418.87 592.133 5421.97 591.3 5424.7 590.5C5427.43 589.7 5430.1 588.833 5432.7 587.9C5435.37 586.967 5438.2 585.933 5441.2 584.8C5441.73 585.467 5442.1 586.233 5442.3 587.1ZM5517.98 637.2C5518.32 637.4 5518.72 637.7 5519.18 638.1C5519.65 638.5 5520.02 638.9 5520.28 639.3C5518.02 642.233 5515.65 644.633 5513.18 646.5C5510.78 648.3 5508.28 649.2 5505.68 649.2C5503.48 649.2 5501.72 648.7 5500.38 647.7C5499.05 646.633 5497.88 644.833 5496.88 642.3C5495.95 639.767 5494.88 636.167 5493.68 631.5C5489.82 637.433 5486.52 641.867 5483.78 644.8C5481.05 647.733 5478.05 649.2 5474.78 649.2C5472.25 649.2 5470.32 648.467 5468.98 647C5467.58 645.533 5466.88 644.033 5466.88 642.5C5466.88 641.1 5467.38 639.9 5468.38 638.9C5469.38 637.9 5470.68 637.4 5472.28 637.4C5473.48 637.4 5474.68 637.8 5475.88 638.6C5477.15 639.333 5478.25 640.633 5479.18 642.5C5480.52 641.7 5481.95 640.4 5483.48 638.6C5485.08 636.733 5486.65 634.7 5488.18 632.5C5489.72 630.3 5491.08 628.167 5492.28 626.1C5491.22 621.767 5490.32 618.333 5489.58 615.8C5488.92 613.2 5488.32 611.233 5487.78 609.9C5487.25 608.567 5486.65 607.7 5485.98 607.3C5485.38 606.833 5484.65 606.6 5483.78 606.6C5482.52 606.6 5481.18 607.167 5479.78 608.3C5478.38 609.367 5477.25 610.333 5476.38 611.2C5476.05 610.933 5475.65 610.633 5475.18 610.3C5474.78 609.9 5474.42 609.5 5474.08 609.1C5476.02 606.767 5478.25 604.733 5480.78 603C5483.32 601.2 5485.98 600.3 5488.78 600.3C5490.92 600.3 5492.58 600.767 5493.78 601.7C5495.05 602.633 5496.12 604.267 5496.98 606.6C5497.92 608.867 5498.92 612.133 5499.98 616.4C5503.52 611.067 5506.68 607 5509.48 604.2C5512.28 601.4 5515.28 600 5518.48 600C5520.68 600 5522.48 600.6 5523.88 601.8C5525.28 603 5525.98 604.467 5525.98 606.2C5525.98 607.733 5525.45 609 5524.38 610C5523.38 611 5522.12 611.5 5520.58 611.5C5519.52 611.5 5518.35 611.167 5517.08 610.5C5515.82 609.767 5514.85 608.4 5514.18 606.4C5510.78 608.467 5506.48 613.533 5501.28 621.6C5501.35 621.8 5501.38 622 5501.38 622.2C5501.45 622.333 5501.52 622.5 5501.58 622.7C5502.72 627.167 5503.62 630.767 5504.28 633.5C5505.02 636.167 5505.65 638.2 5506.18 639.6C5506.78 640.933 5507.38 641.833 5507.98 642.3C5508.65 642.7 5509.42 642.9 5510.28 642.9C5511.62 642.9 5512.95 642.3 5514.28 641.1C5515.62 639.833 5516.85 638.533 5517.98 637.2ZM5602.01 626.9H5580.91V648C5580.25 648.067 5579.35 648.1 5578.21 648.1C5577.08 648.1 5576.15 648.067 5575.41 648V626.9H5554.31C5554.05 625.1 5554.05 623.267 5554.31 621.4H5575.41V600.3C5576.15 600.233 5577.08 600.2 5578.21 600.2C5579.35 600.2 5580.25 600.233 5580.91 600.3V621.4H5602.01C5602.15 623.267 5602.15 625.1 5602.01 626.9ZM5643.4 596.7C5643.13 596.367 5642.83 596.033 5642.5 595.7C5642.16 595.3 5641.83 594.833 5641.5 594.3C5644.7 591.033 5648.06 588.667 5651.6 587.2C5655.13 585.733 5658.63 585 5662.1 585C5667.43 585 5671.6 586.433 5674.6 589.3C5677.6 592.167 5679.1 595.7 5679.1 599.9C5679.1 603.167 5678.16 606.433 5676.3 609.7C5674.5 612.9 5671.96 616.133 5668.7 619.4C5665.43 622.6 5661.66 625.9 5657.4 629.3C5653.13 632.633 5648.56 636.1 5643.7 639.7L5660.4 639.6C5663.4 639.6 5665.73 639.467 5667.4 639.2C5669.13 638.933 5670.6 638.167 5671.8 636.9C5673.06 635.633 5674.46 633.567 5676 630.7C5676.53 630.7 5677.06 630.7 5677.6 630.7C5678.2 630.7 5678.8 630.767 5679.4 630.9C5677.93 634.9 5676.8 638.233 5676 640.9C5675.26 643.567 5674.56 645.967 5673.9 648.1C5671.16 648.033 5668.16 648 5664.9 648C5661.63 647.933 5658.36 647.9 5655.1 647.9C5651.9 647.9 5648.96 647.9 5646.3 647.9C5642.5 647.9 5639.33 647.9 5636.8 647.9C5634.33 647.9 5632.4 647.933 5631 648C5630.8 647.067 5630.7 646.167 5630.7 645.3C5635.43 641.7 5640 638.067 5644.4 634.4C5648.86 630.733 5652.9 627.067 5656.5 623.4C5660.1 619.667 5662.93 615.967 5665 612.3C5667.13 608.633 5668.2 605.033 5668.2 601.5C5668.2 598.3 5667.26 595.9 5665.4 594.3C5663.6 592.633 5661.03 591.8 5657.7 591.8C5655.43 591.8 5653.1 592.2 5650.7 593C5648.36 593.733 5645.93 594.967 5643.4 596.7ZM5730.19 637.2C5730.52 637.4 5730.92 637.7 5731.39 638.1C5731.86 638.5 5732.22 638.9 5732.49 639.3C5730.22 642.233 5727.86 644.633 5725.39 646.5C5722.99 648.3 5720.49 649.2 5717.89 649.2C5715.69 649.2 5713.92 648.7 5712.59 647.7C5711.26 646.633 5710.09 644.833 5709.09 642.3C5708.16 639.767 5707.09 636.167 5705.89 631.5C5702.02 637.433 5698.72 641.867 5695.99 644.8C5693.26 647.733 5690.26 649.2 5686.99 649.2C5684.46 649.2 5682.52 648.467 5681.19 647C5679.79 645.533 5679.09 644.033 5679.09 642.5C5679.09 641.1 5679.59 639.9 5680.59 638.9C5681.59 637.9 5682.89 637.4 5684.49 637.4C5685.69 637.4 5686.89 637.8 5688.09 638.6C5689.36 639.333 5690.46 640.633 5691.39 642.5C5692.72 641.7 5694.16 640.4 5695.69 638.6C5697.29 636.733 5698.86 634.7 5700.39 632.5C5701.92 630.3 5703.29 628.167 5704.49 626.1C5703.42 621.767 5702.52 618.333 5701.79 615.8C5701.12 613.2 5700.52 611.233 5699.99 609.9C5699.46 608.567 5698.86 607.7 5698.19 607.3C5697.59 606.833 5696.86 606.6 5695.99 606.6C5694.72 606.6 5693.39 607.167 5691.99 608.3C5690.59 609.367 5689.46 610.333 5688.59 611.2C5688.26 610.933 5687.86 610.633 5687.39 610.3C5686.99 609.9 5686.62 609.5 5686.29 609.1C5688.22 606.767 5690.46 604.733 5692.99 603C5695.52 601.2 5698.19 600.3 5700.99 600.3C5703.12 600.3 5704.79 600.767 5705.99 601.7C5707.26 602.633 5708.32 604.267 5709.19 606.6C5710.12 608.867 5711.12 612.133 5712.19 616.4C5715.72 611.067 5718.89 607 5721.69 604.2C5724.49 601.4 5727.49 600 5730.69 600C5732.89 600 5734.69 600.6 5736.09 601.8C5737.49 603 5738.19 604.467 5738.19 606.2C5738.19 607.733 5737.66 609 5736.59 610C5735.59 611 5734.32 611.5 5732.79 611.5C5731.72 611.5 5730.56 611.167 5729.29 610.5C5728.02 609.767 5727.06 608.4 5726.39 606.4C5722.99 608.467 5718.69 613.533 5713.49 621.6C5713.56 621.8 5713.59 622 5713.59 622.2C5713.66 622.333 5713.72 622.5 5713.79 622.7C5714.92 627.167 5715.82 630.767 5716.49 633.5C5717.22 636.167 5717.86 638.2 5718.39 639.6C5718.99 640.933 5719.59 641.833 5720.19 642.3C5720.86 642.7 5721.62 642.9 5722.49 642.9C5723.82 642.9 5725.16 642.3 5726.49 641.1C5727.82 639.833 5729.06 638.533 5730.19 637.2Z"
            fill="white" />
    </g>
    <defs>
        <clipPath id="clip0_1275_45">
            <rect width="6325" height="3191" fill="white" />
        </clipPath>
    </defs>
</svg>