<svg id="visual" viewBox="0 0 4000 475" width="4000" height="475" xmlns="http://www.w3.org/2000/svg"
    xmlns:xlink="http://www.w3.org/1999/xlink" version="1.1">
    <rect x="0" y="0" width="4000" height="475" fill="#000000"></rect>
    <path
        d="M0 177L41.7 187C83.3 197 166.7 217 250 256C333.3 295 416.7 353 500 352C583.3 351 666.7 291 750 248.3C833.3 205.7 916.7 180.3 1000 172.2C1083.3 164 1166.7 173 1250 210.3C1333.3 247.7 1416.7 313.3 1500 331.5C1583.3 349.7 1666.7 320.3 1750 308.2C1833.3 296 1916.7 301 2000 291.7C2083.3 282.3 2166.7 258.7 2250 247.3C2333.3 236 2416.7 237 2500 259.8C2583.3 282.7 2666.7 327.3 2750 322.5C2833.3 317.7 2916.7 263.3 3000 255C3083.3 246.7 3166.7 284.3 3250 290.2C3333.3 296 3416.7 270 3500 276C3583.3 282 3666.7 320 3750 336C3833.3 352 3916.7 346 3958.3 343L4000 340"
        fill="none" stroke-linecap="round" stroke-linejoin="miter" stroke="#8be9fd" stroke-width="40"></path>
</svg>